<svg preserveAspectRatio="none" width="100%" height="100%" overflow="visible" style="display: block;" viewBox="0 0 21.0349 20.4835" fill="none" xmlns="http://www.w3.org/2000/svg">
<path id="Vector" fill-rule="evenodd" clip-rule="evenodd" d="M10.4986 6.27167e-05C8.00582 0.000398192 5.59446 0.887598 3.69588 2.50296C1.7973 4.11832 0.535359 6.35646 0.135789 8.81701C-0.263781 11.2776 0.225091 13.8 1.51495 15.9332C2.80482 18.0663 4.81152 19.6709 7.17611 20.4601C7.70111 20.5576 7.92611 20.2351 7.92611 19.9576C7.92611 19.6801 7.92611 19.0501 7.92611 18.1726C5.00861 18.8026 4.39361 16.7626 4.39361 16.7626C4.18845 16.1197 3.75665 15.5733 3.17861 15.2251C2.22611 14.5801 3.25361 14.5876 3.25361 14.5876C3.58631 14.6346 3.90388 14.757 4.18204 14.9455C4.46021 15.1339 4.69162 15.3835 4.85861 15.6751C5.14912 16.1961 5.63466 16.5805 6.20848 16.7436C6.78231 16.9068 7.39743 16.8353 7.91861 16.5451C7.96096 16.0129 8.19556 15.5144 8.57861 15.1426C6.25361 14.8726 3.80111 13.9726 3.80111 9.95256C3.78411 8.90848 4.17103 7.89818 4.88111 7.13256C4.55971 6.22821 4.59729 5.23504 4.98611 4.35756C4.98611 4.35756 5.86361 4.07256 7.87361 5.43006C9.59222 4.96127 11.405 4.96127 13.1236 5.43006C15.1261 4.07256 16.0036 4.35756 16.0036 4.35756C16.3924 5.23504 16.43 6.22821 16.1086 7.13256C16.8187 7.89818 17.2056 8.90848 17.1886 9.95256C17.1886 13.9876 14.7361 14.8726 12.3961 15.1351C12.6468 15.3891 12.8401 15.694 12.963 16.0291C13.0859 16.3641 13.1355 16.7217 13.1086 17.0776C13.1086 18.4801 13.1086 19.6126 13.1086 19.9576C13.1086 20.3026 13.2961 20.5651 13.8586 20.4601C16.2263 19.67 18.2351 18.0622 19.5248 15.9252C20.8144 13.7881 21.3006 11.2615 20.8961 8.79845C20.4916 6.3354 19.2229 4.097 17.3175 2.48464C15.4121 0.872283 12.9946 -0.00856039 10.4986 6.27167e-05V6.27167e-05Z" fill="var(--fill-0, #161616)"/>
</svg>
