<svg width="1200" height="630" viewBox="0 0 1200 630" fill="none" xmlns="http://www.w3.org/2000/svg">
<rect width="1200" height="630" fill="#FFE8AF"/>
<path fill-rule="evenodd" clip-rule="evenodd" d="M614.202 260.57C660.053 260.57 684.764 295.106 684.764 339.765C684.764 342.742 684.764 347.208 684.168 352.865H570.733C573.413 390.677 590.681 403.182 612.118 403.182C631.173 403.182 646.059 391.57 649.334 371.623H682.382C675.534 409.136 645.464 427 610.928 427C568.65 427 536.793 400.205 536.793 344.232C536.793 294.213 568.65 260.57 614.202 260.57ZM613.012 284.388C590.682 284.388 574.604 299.571 571.031 329.94H651.121C648.739 300.763 635.937 284.388 613.012 284.388Z" fill="black"/>
<path fill-rule="evenodd" clip-rule="evenodd" d="M919.365 260.57C965.215 260.57 989.927 295.106 989.927 339.765C989.927 342.742 989.927 347.208 989.331 352.865H875.896C878.576 390.677 895.844 403.182 917.281 403.182C936.336 403.182 951.222 391.57 954.497 371.623H987.545C980.697 409.137 950.626 427 916.089 427C873.812 427 841.955 400.204 841.954 344.232C841.954 294.213 873.813 260.57 919.365 260.57ZM918.173 284.388C895.844 284.388 879.767 299.572 876.194 329.94H956.284C953.902 300.762 941.098 284.388 918.173 284.388Z" fill="black"/>
<path fill-rule="evenodd" clip-rule="evenodd" d="M1075.23 260.57C1116.02 260.57 1132.1 277.837 1134.78 304.633C1135.38 311.183 1135.67 319.52 1135.67 326.963V382.638C1135.67 394.548 1136.27 405.266 1138.65 422.831H1106.2L1103.22 399.907L1095.18 416.878C1084.46 424.321 1070.77 427 1055.88 427C1027.89 427 1004.97 410.923 1004.97 381.448C1004.97 346.316 1032.96 327.261 1092.8 327.261H1102.92V323.39C1102.92 317.436 1102.92 312.076 1102.33 306.121C1101.43 293.319 1093.4 284.388 1074.64 284.388C1055.58 284.388 1045.76 295.105 1043.97 314.755H1011.22C1013.31 280.219 1039.21 260.57 1075.23 260.57ZM1102.92 348.995C1064.52 346.017 1039.51 354.652 1039.51 378.768C1039.51 395.441 1050.52 403.182 1067.79 403.182C1088.33 403.182 1102.92 389.188 1102.92 363.583V348.995Z" fill="black"/>
<path d="M741.488 374.599C741.488 379.958 741.489 384.722 741.786 389.486C742.382 398.417 746.551 401.396 760.544 400.205V423.129C753.994 424.023 746.551 424.618 739.108 424.618C721.84 424.618 710.228 418.366 709.037 398.121C708.739 392.166 708.739 385.02 708.739 375.493V204H741.488V374.599Z" fill="black"/>
<path d="M813.457 374.599C813.457 379.958 813.455 384.722 813.753 389.486C814.349 398.417 818.518 401.396 832.51 400.205V423.129C825.96 424.022 818.518 424.618 811.075 424.618C793.806 424.618 782.195 418.366 781.003 398.121C780.706 392.166 780.705 385.02 780.705 375.493V204H813.457V374.599Z" fill="black"/>
<path fill-rule="evenodd" clip-rule="evenodd" d="M153.11 264.338C198.854 264.338 234.641 301.373 243.858 339.193L244.897 343.458H244.721C245.042 345.514 245.221 347.655 245.221 349.876C245.221 372.495 228.419 385.983 217.61 392.195C210.59 396.23 202.453 399.944 193.187 402.826C192.247 409.494 186.629 414.482 180.314 417.641C173.107 421.247 163.483 423.34 153.112 423.34C142.742 423.34 133.117 421.247 125.911 417.641C119.658 414.514 114.088 409.592 113.067 403.022C105.543 400.471 98.0323 397.013 89.2539 392.559L89.1848 392.522L89.1176 392.484C78.5355 386.505 62.0669 373.623 61.0472 351.979L61.0454 351.937L61 349.863L61.0036 349.774L61.0727 347.443V347.392L61.0763 347.341C61.2471 344.462 61.7051 341.722 62.3865 339.131C71.6267 301.334 107.391 264.34 153.11 264.338ZM152.527 360.712C144.679 360.712 143.052 360.705 138.315 360.705C138.315 368.554 144.678 374.917 152.527 374.917C160.376 374.917 166.739 368.554 166.739 360.705C162.003 360.704 160.376 360.712 152.527 360.712ZM117.646 325.782C112.749 325.782 108.78 333.727 108.78 343.525C108.78 353.323 112.749 361.266 117.646 361.266C122.542 361.265 126.512 353.323 126.512 343.525C126.512 333.727 122.542 325.783 117.646 325.782ZM188.571 325.782C183.675 325.783 179.705 333.727 179.705 343.525C179.705 353.322 183.675 361.265 188.571 361.266C193.468 361.266 197.437 353.323 197.437 343.525C197.437 333.727 193.468 325.782 188.571 325.782ZM93.6988 297.406C82.1288 309.171 73.6935 323.753 69.6281 338.673C70.2601 338.718 70.8981 338.744 71.5416 338.744C86.231 338.744 98.1393 326.83 98.14 312.133C98.14 306.687 96.5046 301.623 93.6988 297.406ZM210.469 295.376C206.759 299.951 204.535 305.782 204.535 312.133C204.536 326.83 216.444 338.744 231.134 338.744C232.952 338.744 234.728 338.558 236.444 338.21L236.109 336.943C231.621 321.76 222.636 307.029 210.469 295.376ZM153.11 271.235C139.26 271.235 126.328 274.968 114.909 281.244C124.317 292.963 138.757 300.468 154.949 300.468C170.477 300.468 184.393 293.567 193.805 282.667C182.053 275.693 168.586 271.425 154.092 271.24L153.11 271.235Z" fill="black"/>
<path d="M463.905 260.57C493.082 260.57 509.755 277.54 513.328 299.274C514.518 307.313 514.816 314.459 514.816 327.261V422.831H482.066V339.169C482.066 327.26 481.767 318.627 480.874 310.588C478.79 293.617 468.37 284.686 451.399 284.686C432.345 284.686 419.542 300.465 419.542 343.338V422.831H387.09V339.169C387.09 327.26 386.791 318.627 385.898 310.588C383.516 293.617 373.393 284.686 356.423 284.686C337.071 284.686 324.565 300.465 324.565 343.338V422.831H291.816V264.736H324.565V288.258L335.285 269.799C343.622 263.249 354.638 260.57 368.929 260.57C393.937 260.57 409.716 273.073 415.671 290.639L430.261 269.799C438.895 263.249 449.912 260.57 463.905 260.57Z" fill="black"/>
</svg>
